<?xml version="1.0" standalone="no"?>
<!DOCTYPE svg PUBLIC "-//W3C//DTD SVG 1.1//EN" "http://www.w3.org/Graphics/SVG/1.1/DTD/svg11.dtd">
<svg xmlns="http://www.w3.org/2000/svg" width="37" height="37" viewBox="0 0 37 37" fill="none">
<path d="M26.5695 10.438C25.5963 10.2133 24.5843 10.0911 23.5414 10.0911H10.0898V19.2792C11.081 19.8548 12.2312 20.1908 13.4609 20.1908H16.8161V16.8186H23.5444C24.7751 16.8186 25.9243 17.1546 26.9155 17.7302C28.9197 18.8954 30.2707 21.0607 30.2707 23.5451C30.2707 27.2613 27.2595 30.2717 23.5444 30.2717C21.0591 30.2717 18.8939 28.9216 17.7297 26.9173H13.4609C12.4211 26.9173 11.4091 26.797 10.4368 26.5724C11.8097 32.5443 17.1551 37.0002 23.5444 37.0002C30.9745 37.0002 36.999 30.9755 36.999 23.5451C36.999 17.1566 32.5433 11.81 26.5695 10.437V10.438Z" fill="black"/>
<path d="M23.5379 16.8094H20.1826V20.1816H13.4541C12.2243 20.1816 11.074 19.8456 10.0828 19.2699C8.0776 18.1038 6.72753 15.9395 6.72753 13.4541C6.72753 9.73587 9.73985 6.72653 13.4541 6.72653C15.9395 6.72653 18.1048 8.07661 19.2709 10.0808H23.5349C24.5778 10.0808 25.5898 10.2031 26.5631 10.4278C25.1902 4.45585 19.8446 0 13.4551 0C6.02465 0 0 6.02266 0 13.4551C0 19.8446 4.45585 25.1892 10.4298 26.5641C11.4021 26.7878 12.4142 26.9091 13.4541 26.9091H26.9091V17.722C25.9179 17.1464 24.7687 16.8104 23.5379 16.8104V16.8094Z" fill="url(#paint0_linear_291_557)"/>
<defs>
<linearGradient id="paint0_linear_291_557" x1="3.72812" y1="13.4212" x2="26.9419" y2="15.3599" gradientUnits="userSpaceOnUse">
<stop stop-color="#1100FF"/>
<stop offset="1" stop-color="#FF0042"/>
</linearGradient>
</defs>
</svg>